<svg width="225" height="50" viewBox="0 0 225 50" fill="none" xmlns="http://www.w3.org/2000/svg">
<rect width="50" height="50" fill="#C31E39"/>
<path d="M20.6526 26.025L20.6276 26.45C20.6276 26.5333 20.5859 27.0583 20.5026 28.025C20.4359 28.7583 20.4026 29.325 20.4026 29.725C20.4026 30.225 20.4109 30.6416 20.4276 30.975C20.4442 31.0916 20.4526 31.2333 20.4526 31.4C20.4526 31.5833 20.4109 31.675 20.3276 31.675C20.2442 31.675 20.1526 31.5916 20.0526 31.425C19.6859 30.825 19.2942 30.4333 18.8776 30.25C17.6276 31.3166 16.2859 31.85 14.8526 31.85C12.6692 31.85 10.7442 31.0333 9.07755 29.4C7.31089 27.6666 6.42755 25.4833 6.42755 22.85C6.42755 20.3 7.21922 18.175 8.80255 16.475C10.4026 14.7583 12.3942 13.9 14.7776 13.9C15.8776 13.9 16.8609 14.15 17.7276 14.65C18.2276 14.9333 18.5942 15.075 18.8276 15.075C19.1776 15.075 19.5026 14.9166 19.8026 14.6C20.0192 14.3666 20.1526 14.25 20.2026 14.25C20.2692 14.25 20.3026 14.3083 20.3026 14.425C20.3026 14.475 20.2942 14.55 20.2776 14.65C20.1776 15.2166 20.1276 15.9166 20.1276 16.75C20.1276 16.8333 20.1359 17.175 20.1526 17.775C20.1526 18.3583 20.1526 18.75 20.1526 18.95V19.5C20.1526 19.8 20.0692 19.95 19.9026 19.95C19.7692 19.95 19.6359 19.625 19.5026 18.975C18.9026 15.975 17.5276 14.475 15.3776 14.475C13.6776 14.475 12.4442 15.575 11.6776 17.775C11.1442 19.275 10.8776 21.075 10.8776 23.175C10.8776 26.2916 11.5109 28.575 12.7776 30.025C13.4442 30.7916 14.3192 31.175 15.4026 31.175C17.7526 31.175 19.2942 29.6083 20.0276 26.475C20.1442 25.9583 20.2776 25.7 20.4276 25.7C20.5942 25.7 20.6692 25.8083 20.6526 26.025Z" fill="#F3E8E4"/>
<path d="M30.6961 20.825C30.6961 20.925 30.6211 20.9833 30.4711 21C30.4211 21 29.9544 21.0166 29.0711 21.05C28.5211 21.0666 28.1961 21.1666 28.0961 21.35C28.0128 21.5166 27.9711 22.0833 27.9711 23.05L27.9961 30.275C27.9961 30.5083 28.0294 30.675 28.0961 30.775C28.1961 30.9916 28.4794 31.1 28.9461 31.1H29.5461L30.1461 31.15C30.3961 31.1666 30.5211 31.225 30.5211 31.325C30.5211 31.4583 30.3711 31.525 30.0711 31.525H29.9461L24.9461 31.5L22.4461 31.55C22.0461 31.55 21.8461 31.4833 21.8461 31.35C21.8461 31.25 21.9128 31.1916 22.0461 31.175C22.1961 31.1416 22.5961 31.125 23.2461 31.125C23.8128 31.125 24.1628 31.0666 24.2961 30.95C24.4294 30.8166 24.4961 30.4916 24.4961 29.975L24.5211 24.25C24.5211 22.4833 24.4794 21.525 24.3961 21.375C24.2628 21.1583 23.7211 21.0416 22.7711 21.025C22.2711 21.025 22.0211 20.9583 22.0211 20.825C22.0211 20.675 22.2628 20.6083 22.7461 20.625L23.2711 20.65L26.8461 20.675C27.2628 20.675 27.7128 20.6666 28.1961 20.65C28.6794 20.6333 29.3211 20.625 30.1211 20.625C30.5044 20.625 30.6961 20.6916 30.6961 20.825Z" fill="#F3E8E4"/>
<path d="M43.7432 27.425C43.7432 30.2083 42.9599 32.5333 41.3932 34.4C39.8265 36.2666 37.8682 37.2 35.5182 37.2C34.5349 37.2 33.7349 36.9833 33.1182 36.55C32.5182 36.1333 32.2182 35.5916 32.2182 34.925C32.2182 34.4416 32.3682 34.05 32.6682 33.75C32.9682 33.4666 33.3682 33.325 33.8682 33.325C34.8015 33.325 35.2682 33.7333 35.2682 34.55C35.2682 34.9166 35.1599 35.2083 34.9432 35.425C34.8265 35.5583 34.5515 35.75 34.1182 36C34.0182 36.05 33.9682 36.125 33.9682 36.225C33.9682 36.5916 34.4515 36.775 35.4182 36.775C36.7349 36.775 37.7765 36.025 38.5432 34.525C39.3265 33.025 39.7182 31.325 39.7182 29.425C38.8515 30.2416 37.7849 30.65 36.5182 30.65C35.1015 30.65 33.9182 30.1833 32.9682 29.25C32.0349 28.3 31.5682 27.1333 31.5682 25.75C31.5682 24.2 32.1432 22.925 33.2932 21.925C34.4599 20.9083 35.9265 20.4 37.6932 20.4C39.5599 20.4 41.0349 21.025 42.1182 22.275C43.2015 23.525 43.7432 25.2416 43.7432 27.425ZM40.2182 25.725C40.2182 24.0416 39.9599 22.775 39.4432 21.925C38.9932 21.175 38.3849 20.8 37.6182 20.8C37.0849 20.8 36.6099 21.025 36.1932 21.475C35.5599 22.1583 35.2432 23.3333 35.2432 25C35.2432 28.25 36.0599 29.875 37.6932 29.875C38.4432 29.875 39.0515 29.4916 39.5182 28.725C39.9849 27.9583 40.2182 26.9583 40.2182 25.725Z" fill="#F3E8E4"/>
<path d="M79.9856 26.1831L79.961 26.6075C79.961 26.6907 79.92 27.215 79.8381 28.1803C79.7726 28.9126 79.7398 29.4785 79.7398 29.8779C79.7398 30.3773 79.748 30.7933 79.7644 31.1262C79.7808 31.2427 79.789 31.3842 79.789 31.5506C79.789 31.7337 79.748 31.8252 79.6661 31.8252C79.5841 31.8252 79.494 31.742 79.3957 31.5756C79.0352 30.9764 78.6501 30.5853 78.2405 30.4022C77.0115 31.4674 75.6924 32 74.2832 32C72.1366 32 70.244 31.1845 68.6054 29.5534C66.8685 27.8225 66 25.6422 66 23.0125C66 20.466 66.7783 18.344 68.335 16.6463C69.9081 14.932 71.8662 14.0749 74.2095 14.0749C75.2909 14.0749 76.2577 14.3245 77.1098 14.8239C77.6014 15.1068 77.9619 15.2483 78.1913 15.2483C78.5354 15.2483 78.8549 15.0902 79.1499 14.7739C79.3629 14.5409 79.494 14.4244 79.5432 14.4244C79.6087 14.4244 79.6415 14.4827 79.6415 14.5992C79.6415 14.6491 79.6333 14.724 79.6169 14.8239C79.5186 15.3897 79.4694 16.0888 79.4694 16.9209C79.4694 17.0042 79.4776 17.3454 79.494 17.9445C79.494 18.527 79.494 18.9182 79.494 19.1179V19.6671C79.494 19.9667 79.4121 20.1165 79.2482 20.1165C79.1171 20.1165 78.986 19.792 78.8549 19.1429C78.265 16.147 76.9132 14.6491 74.7994 14.6491C73.128 14.6491 71.9154 15.7476 71.1616 17.9445C70.6373 19.4424 70.3751 21.2399 70.3751 23.337C70.3751 26.4494 70.9978 28.7295 72.2431 30.1775C72.8986 30.9431 73.7588 31.3259 74.8239 31.3259C77.1344 31.3259 78.6501 29.7614 79.3711 26.6325C79.4858 26.1165 79.6169 25.8585 79.7644 25.8585C79.9282 25.8585 80.002 25.9667 79.9856 26.1831Z" fill="#302828"/>
<path d="M91.9002 26.258C91.9002 27.8724 91.4168 29.2288 90.45 30.3273C89.4832 31.4092 88.2788 31.9501 86.8369 31.9501C85.3457 31.9501 84.1004 31.4092 83.1008 30.3273C82.1013 29.2288 81.6015 27.8724 81.6015 26.258C81.6015 24.5936 82.0849 23.2122 83.0517 22.1137C84.0348 21.0153 85.2556 20.466 86.714 20.466C88.1887 20.466 89.4177 21.0236 90.4008 22.1387C91.4004 23.2372 91.9002 24.6103 91.9002 26.258ZM89.6635 26.233C89.6635 24.4022 89.3849 22.9792 88.8278 21.9639C88.4181 21.215 87.7299 20.8405 86.7631 20.8405C85.8455 20.8405 85.1245 21.3232 84.6001 22.2885C84.0922 23.2372 83.8382 24.5603 83.8382 26.258C83.8382 27.939 84.1086 29.2538 84.6493 30.2025C85.2064 31.1345 85.9766 31.6006 86.9597 31.6006C87.7135 31.6006 88.2706 31.3093 88.6311 30.7268C89.3194 29.6283 89.6635 28.1304 89.6635 26.233Z" fill="#302828"/>
<path d="M102.849 20.9404C102.849 21.0735 102.694 21.1401 102.382 21.1401C102.268 21.1401 102.12 21.1318 101.94 21.1151H101.793C101.498 21.1151 101.268 21.2982 101.104 21.6644C101.006 21.9806 100.908 22.2968 100.809 22.613L98.7447 29.0541C98.63 29.387 98.4662 29.8946 98.2531 30.577C97.991 31.4924 97.7779 31.9501 97.6141 31.9501C97.4994 31.9501 97.3847 31.792 97.27 31.4757C97.188 31.276 97.1061 31.0513 97.0242 30.8017C95.6969 27.1567 95.0251 25.3426 95.0087 25.3592C94.1566 22.896 93.6404 21.5562 93.4602 21.3398C93.3127 21.19 93.0833 21.1234 92.772 21.1401L92.2066 21.165C92.0428 21.165 91.9609 21.0985 91.9609 20.9653C91.9609 20.8322 92.0756 20.7656 92.305 20.7656L94.0255 20.8155C94.2877 20.8155 94.8039 20.8072 95.574 20.7906C96.4097 20.7739 96.8439 20.7656 96.8767 20.7656H96.9996C97.1635 20.7656 97.2454 20.8239 97.2454 20.9404C97.2454 21.0735 96.9914 21.1401 96.4834 21.1401C95.9755 21.1401 95.7215 21.2067 95.7215 21.3398C95.7215 21.5229 95.7952 21.7975 95.9427 22.1637C96.2049 22.8294 96.7128 24.2607 97.4666 26.4577C97.7943 27.4397 98.0647 28.1886 98.2777 28.7046C98.7365 27.2233 99.1462 25.9501 99.5067 24.8849C100.228 22.7212 100.588 21.5395 100.588 21.3398C100.588 21.19 100.465 21.1151 100.219 21.1151C100.088 21.1151 99.9819 21.1234 99.8999 21.1401H99.6787C99.4657 21.1401 99.3592 21.0735 99.3592 20.9404C99.3592 20.8239 99.4575 20.7656 99.6542 20.7656L101.178 20.7906L102.112 20.7656C102.604 20.749 102.849 20.8072 102.849 20.9404Z" fill="#302828"/>
<path d="M106.187 15.9473C106.187 16.6963 105.818 17.0707 105.081 17.0707C104.77 17.0707 104.507 16.9709 104.294 16.7712C104.081 16.5548 103.975 16.2968 103.975 15.9972C103.975 15.215 104.344 14.8239 105.081 14.8239C105.818 14.8239 106.187 15.1983 106.187 15.9473ZM108.03 31.5007C108.03 31.6505 107.891 31.7254 107.613 31.7254C107.629 31.7254 107.432 31.7087 107.023 31.6754C106.531 31.6422 106.122 31.6255 105.794 31.6255L103.238 31.6754C103.156 31.6921 103.057 31.7004 102.943 31.7004C102.762 31.7004 102.672 31.6422 102.672 31.5257C102.672 31.3592 102.836 31.276 103.164 31.276C103.786 31.2594 104.122 31.2178 104.172 31.1512C104.237 31.068 104.27 30.7184 104.27 30.1026L104.245 22.5381C104.229 22.1221 104.204 21.8807 104.172 21.8141C104.155 21.7309 104.057 21.6893 103.877 21.6893L103.164 21.7143C103.098 21.7309 103.016 21.7393 102.918 21.7393C102.738 21.7393 102.648 21.6727 102.648 21.5395C102.648 21.423 102.787 21.3564 103.065 21.3398C104.163 21.2899 105.106 21.0236 105.892 20.5409L106.138 20.3911C106.269 20.6408 106.335 21.0985 106.335 21.7642C106.335 21.7309 106.335 21.8141 106.335 22.0139C106.318 22.2136 106.31 22.5381 106.31 22.9875V29.8031C106.31 30.4688 106.318 30.8599 106.335 30.9764C106.367 31.0929 106.457 31.1678 106.605 31.2011C106.851 31.2677 107.211 31.301 107.686 31.301C107.916 31.301 108.03 31.3675 108.03 31.5007Z" fill="#302828"/>
<path d="M120 31.1512C120 31.2677 119.885 31.3259 119.656 31.3259H119.533C119.402 31.3259 119.263 31.3176 119.115 31.301C118.984 31.301 118.919 31.301 118.919 31.301C118.116 31.301 117.436 31.4674 116.878 31.8003C116.649 31.9334 116.51 32 116.461 32C116.313 32 116.239 31.9001 116.239 31.7004L116.264 30.9265C115.559 31.6089 114.724 31.9501 113.757 31.9501C112.38 31.9501 111.242 31.4175 110.34 30.3523C109.456 29.2705 109.013 27.8974 109.013 26.233C109.013 24.5187 109.456 23.129 110.34 22.0638C111.242 20.9986 112.413 20.466 113.855 20.466C114.969 20.466 115.805 20.8738 116.362 21.6893V17.7947C116.362 16.5298 116.305 15.7476 116.19 15.448C116.092 15.1983 115.944 15.0818 115.748 15.0985C115.273 15.1484 114.986 15.1734 114.888 15.1734C114.674 15.1734 114.568 15.0985 114.568 14.9487C114.568 14.7989 114.658 14.724 114.838 14.724L115.723 14.749C116.215 14.7656 116.969 14.5326 117.985 14.0499C118.05 14.0166 118.107 14 118.157 14C118.32 14 118.402 14.1997 118.402 14.5992C118.402 14.699 118.402 14.8738 118.402 15.1234C118.386 15.3897 118.378 15.6227 118.378 15.8225V24.4355C118.378 28.38 118.419 30.4938 118.501 30.7767C118.533 30.8932 118.919 30.9515 119.656 30.9515C119.885 30.9515 120 31.018 120 31.1512ZM116.362 24.8849C116.362 23.2871 116.19 22.2635 115.846 21.8141C115.404 21.2483 114.838 20.9653 114.15 20.9653C113.265 20.9653 112.561 21.4313 112.036 22.3634C111.512 23.2954 111.25 24.5437 111.25 26.1082C111.25 27.6061 111.479 28.8877 111.938 29.9528C112.135 30.4022 112.421 30.7767 112.798 31.0763C113.192 31.3592 113.593 31.5007 114.003 31.5007C114.511 31.5007 114.969 31.3509 115.379 31.0513C115.789 30.7351 116.051 30.3606 116.166 29.9279C116.297 29.4951 116.362 27.8141 116.362 24.8849Z" fill="#302828"/>
<path d="M130.548 24.589C130.548 24.693 130.47 24.7536 130.315 24.7709C130.263 24.7709 129.777 24.7883 128.859 24.8229C128.288 24.8402 127.95 24.9442 127.846 25.1347C127.759 25.308 127.716 25.8969 127.716 26.9017L127.742 34.4113C127.742 34.6538 127.777 34.827 127.846 34.9309C127.95 35.1561 128.244 35.2687 128.729 35.2687H129.353L129.977 35.3207C130.237 35.338 130.366 35.3987 130.366 35.5026C130.366 35.6412 130.211 35.7105 129.899 35.7105H129.769L124.572 35.6845L121.973 35.7365C121.558 35.7365 121.35 35.6672 121.35 35.5286C121.35 35.4247 121.419 35.364 121.558 35.3467C121.714 35.3121 122.129 35.2947 122.805 35.2947C123.394 35.2947 123.758 35.2341 123.896 35.1128C124.035 34.9743 124.104 34.6365 124.104 34.0994L124.13 28.1489C124.13 26.3127 124.087 25.3166 124 25.1607C123.862 24.9355 123.299 24.8142 122.311 24.7969C121.792 24.7969 121.532 24.7276 121.532 24.589C121.532 24.4331 121.783 24.3638 122.285 24.3812L122.831 24.4072L126.547 24.4331C126.98 24.4331 127.448 24.4245 127.95 24.4072C128.452 24.3898 129.119 24.3812 129.951 24.3812C130.349 24.3812 130.548 24.4505 130.548 24.589Z" fill="#C31E39"/>
<path d="M144.109 31.449C144.109 34.342 143.295 36.7585 141.667 38.6987C140.038 40.6389 138.003 41.609 135.56 41.609C134.538 41.609 133.707 41.3838 133.066 40.9334C132.442 40.5003 132.13 39.9373 132.13 39.2444C132.13 38.742 132.286 38.3349 132.598 38.0231C132.91 37.7286 133.326 37.5814 133.845 37.5814C134.815 37.5814 135.301 38.0058 135.301 38.8546C135.301 39.2357 135.188 39.5389 134.963 39.7641C134.841 39.9027 134.556 40.1019 134.105 40.3617C134.001 40.4137 133.949 40.4917 133.949 40.5956C133.949 40.9767 134.452 41.1673 135.456 41.1673C136.825 41.1673 137.908 40.3877 138.705 38.8286C139.519 37.2696 139.926 35.5026 139.926 33.5278C139.025 34.3766 137.916 34.801 136.6 34.801C135.127 34.801 133.897 34.316 132.91 33.3459C131.94 32.3585 131.455 31.1458 131.455 29.708C131.455 28.097 132.052 26.7718 133.248 25.7324C134.46 24.6757 135.985 24.1473 137.821 24.1473C139.761 24.1473 141.294 24.7969 142.42 26.0962C143.546 27.3954 144.109 29.1797 144.109 31.449ZM140.445 29.682C140.445 27.9324 140.177 26.6159 139.64 25.7324C139.172 24.9528 138.54 24.5631 137.743 24.5631C137.189 24.5631 136.695 24.7969 136.262 25.2646C135.604 25.9749 135.275 27.1962 135.275 28.9285C135.275 32.3065 136.123 33.9955 137.821 33.9955C138.601 33.9955 139.233 33.5971 139.718 32.8002C140.203 32.0033 140.445 30.964 140.445 29.682Z" fill="#C31E39"/>
<path d="M162.016 25.7977C162.016 27.53 161.522 28.9765 160.535 30.1372C159.565 31.2978 158.352 31.8781 156.897 31.8781C155.754 31.8781 154.87 31.4624 154.246 30.6309V36.6853C154.246 37.0664 154.255 37.2916 154.272 37.3609C154.307 37.4302 154.394 37.4908 154.532 37.5428C154.792 37.5948 155.294 37.6208 156.039 37.6208C156.247 37.6208 156.351 37.6987 156.351 37.8546C156.351 37.9759 156.239 38.0365 156.013 38.0365H155.52C155.398 38.0365 155.199 38.0365 154.922 38.0365C154.662 38.0192 154.437 38.0105 154.246 38.0105C154.142 38.0105 153.857 38.0192 153.389 38.0365C152.904 38.0365 152.54 38.0365 152.298 38.0365H150.92C150.418 38.0365 150.167 37.9759 150.167 37.8546C150.167 37.6987 150.271 37.6208 150.479 37.6208H151.258C151.761 37.6208 152.029 37.5082 152.064 37.283C152.081 37.179 152.09 36.3822 152.09 34.8924V21.952C152.09 21.467 151.856 21.2418 151.388 21.2764C150.695 21.2418 150.331 21.2244 150.297 21.2244C150.141 21.2244 150.063 21.1638 150.063 21.0425C150.063 20.8866 150.253 20.8087 150.635 20.8087C151.587 20.826 152.453 20.6008 153.233 20.1331C153.458 19.9945 153.631 19.9252 153.753 19.9252C153.891 19.9252 153.978 19.9945 154.013 20.1331C154.065 20.2543 154.099 20.6441 154.116 21.3024C154.757 20.3843 155.676 19.9252 156.871 19.9252C158.378 19.9252 159.608 20.4795 160.561 21.5882C161.531 22.6796 162.016 24.0827 162.016 25.7977ZM159.703 25.8237C159.703 24.4725 159.495 23.3205 159.08 22.3678C158.525 21.0512 157.668 20.3929 156.507 20.3929C155.901 20.3929 155.381 20.6095 154.948 21.0425C154.515 21.4583 154.281 21.9693 154.246 22.5756C154.212 23.3379 154.22 24.9402 154.272 27.3828C154.29 28.6127 154.316 29.3576 154.35 29.6175C154.385 29.86 154.498 30.1112 154.688 30.371C155.191 31.0813 155.84 31.4364 156.637 31.4364C157.538 31.4364 158.213 31.0553 158.664 30.2931C159.357 29.1324 159.703 27.6426 159.703 25.8237Z" fill="#302828"/>
<path d="M174.521 25.9536C174.521 27.634 174.01 29.0458 172.988 30.1891C171.966 31.3151 170.693 31.8781 169.168 31.8781C167.592 31.8781 166.275 31.3151 165.219 30.1891C164.162 29.0458 163.634 27.634 163.634 25.9536C163.634 24.2213 164.145 22.7835 165.167 21.6402C166.206 20.4969 167.497 19.9252 169.038 19.9252C170.597 19.9252 171.897 20.5055 172.936 21.6662C173.993 22.8095 174.521 24.2387 174.521 25.9536ZM172.157 25.9277C172.157 24.0221 171.862 22.541 171.273 21.4843C170.84 20.7047 170.112 20.315 169.09 20.315C168.12 20.315 167.358 20.8173 166.804 21.8221C166.267 22.8095 165.998 24.1867 165.998 25.9536C165.998 27.7033 166.284 29.0718 166.856 30.0592C167.445 31.0293 168.259 31.5144 169.298 31.5144C170.095 31.5144 170.684 31.2112 171.065 30.6049C171.793 29.4616 172.157 27.9025 172.157 25.9277Z" fill="#302828"/>
<path d="M181.185 31.3844C181.185 31.5403 181.073 31.6183 180.848 31.6183H180.536C180.501 31.6183 180.042 31.601 179.159 31.5663L178.353 31.5403C178.214 31.5403 177.522 31.5663 176.274 31.6183C176.17 31.6356 176.066 31.6443 175.962 31.6443C175.703 31.6616 175.573 31.5837 175.573 31.4104C175.573 31.2892 175.668 31.2285 175.859 31.2285H176.534C177.019 31.2285 177.262 31.1246 177.262 30.9167C177.279 30.8128 177.288 30.1372 177.288 28.8899V15.6637C177.288 15.0921 177.27 14.7802 177.236 14.7283C177.184 14.5897 177.045 14.5204 176.82 14.5204H176.612L175.885 14.5464C175.642 14.5464 175.521 14.4684 175.521 14.3125C175.521 14.1739 175.737 14.096 176.17 14.0787C177.002 14.0267 177.773 13.8361 178.483 13.507L179.029 13.2471L179.237 13.1692C179.375 13.6716 179.436 14.4338 179.418 15.4558L179.392 17.3008L179.418 30.0332C179.418 30.5529 179.427 30.8647 179.444 30.9687C179.462 31.0553 179.522 31.1159 179.626 31.1506C179.644 31.1679 179.964 31.1852 180.588 31.2025C180.986 31.2025 181.185 31.2632 181.185 31.3844Z" fill="#302828"/>
<path d="M185.768 15.222C185.768 16.0015 185.378 16.3913 184.599 16.3913C184.269 16.3913 183.992 16.2873 183.767 16.0795C183.542 15.8543 183.429 15.5858 183.429 15.2739C183.429 14.4598 183.819 14.0527 184.599 14.0527C185.378 14.0527 185.768 14.4424 185.768 15.222ZM187.717 31.4104C187.717 31.5663 187.569 31.6443 187.275 31.6443C187.292 31.6443 187.084 31.627 186.651 31.5923C186.132 31.5577 185.699 31.5403 185.352 31.5403L182.65 31.5923C182.563 31.6096 182.459 31.6183 182.338 31.6183C182.147 31.6183 182.052 31.5577 182.052 31.4364C182.052 31.2632 182.225 31.1766 182.572 31.1766C183.23 31.1592 183.585 31.1159 183.637 31.0466C183.706 30.96 183.741 30.5962 183.741 29.9553L183.715 22.0819C183.698 21.6489 183.672 21.3977 183.637 21.3284C183.62 21.2418 183.516 21.1985 183.325 21.1985L182.572 21.2244C182.502 21.2418 182.416 21.2504 182.312 21.2504C182.121 21.2504 182.026 21.1811 182.026 21.0425C182.026 20.9213 182.173 20.852 182.468 20.8347C183.628 20.7827 184.625 20.5055 185.456 20.0032L185.716 19.8472C185.854 20.1071 185.924 20.5835 185.924 21.2764C185.924 21.2418 185.924 21.3284 185.924 21.5363C185.906 21.7441 185.898 22.0819 185.898 22.5497V29.6435C185.898 30.3364 185.906 30.7435 185.924 30.8647C185.958 30.986 186.054 31.064 186.21 31.0986C186.469 31.1679 186.851 31.2025 187.353 31.2025C187.595 31.2025 187.717 31.2718 187.717 31.4104Z" fill="#302828"/>
<path d="M198.214 22.6016C198.214 23.3985 197.824 23.7969 197.045 23.7969C196.282 23.7969 195.901 23.4331 195.901 22.7056C195.901 22.515 195.988 22.2292 196.161 21.8481C196.213 21.7268 196.239 21.6055 196.239 21.4843C196.239 21.1378 196.057 20.852 195.693 20.6268C195.347 20.4016 194.905 20.289 194.368 20.289C193.329 20.289 192.523 20.7394 191.952 21.6402C191.38 22.541 191.094 23.8056 191.094 25.434C191.094 27.2702 191.389 28.6907 191.978 29.6954C192.567 30.6829 193.398 31.1766 194.472 31.1766C195.2 31.1766 195.849 30.9514 196.421 30.501C196.681 30.2931 197.019 29.8947 197.434 29.3057C197.521 29.2191 197.599 29.1757 197.668 29.1757C197.841 29.1757 197.928 29.245 197.928 29.3836C197.928 29.6088 197.625 30.0332 197.019 30.6569C196.239 31.4711 195.243 31.8781 194.03 31.8781C192.506 31.8781 191.241 31.3325 190.237 30.2411C189.249 29.1498 188.755 27.7726 188.755 26.1096C188.755 24.3253 189.284 22.8528 190.341 21.6922C191.397 20.5142 192.722 19.9252 194.316 19.9252C195.338 19.9252 196.239 20.1937 197.019 20.7307C197.815 21.2677 198.214 21.8914 198.214 22.6016Z" fill="#302828"/>
<path d="M202.922 15.222C202.922 16.0015 202.532 16.3913 201.752 16.3913C201.423 16.3913 201.146 16.2873 200.921 16.0795C200.696 15.8543 200.583 15.5858 200.583 15.2739C200.583 14.4598 200.973 14.0527 201.752 14.0527C202.532 14.0527 202.922 14.4424 202.922 15.222ZM204.871 31.4104C204.871 31.5663 204.723 31.6443 204.429 31.6443C204.446 31.6443 204.238 31.627 203.805 31.5923C203.286 31.5577 202.852 31.5403 202.506 31.5403L199.804 31.5923C199.717 31.6096 199.613 31.6183 199.492 31.6183C199.301 31.6183 199.206 31.5577 199.206 31.4364C199.206 31.2632 199.379 31.1766 199.726 31.1766C200.384 31.1592 200.739 31.1159 200.791 31.0466C200.86 30.96 200.895 30.5962 200.895 29.9553L200.869 22.0819C200.852 21.6489 200.826 21.3977 200.791 21.3284C200.774 21.2418 200.67 21.1985 200.479 21.1985L199.726 21.2244C199.656 21.2418 199.57 21.2504 199.466 21.2504C199.275 21.2504 199.18 21.1811 199.18 21.0425C199.18 20.9213 199.327 20.852 199.622 20.8347C200.782 20.7827 201.778 20.5055 202.61 20.0032L202.87 19.8472C203.008 20.1071 203.078 20.5835 203.078 21.2764C203.078 21.2418 203.078 21.3284 203.078 21.5363C203.06 21.7441 203.052 22.0819 203.052 22.5497V29.6435C203.052 30.3364 203.06 30.7435 203.078 30.8647C203.112 30.986 203.208 31.064 203.364 31.0986C203.623 31.1679 204.004 31.2025 204.507 31.2025C204.749 31.2025 204.871 31.2718 204.871 31.4104Z" fill="#302828"/>
<path d="M215.602 28.734C215.602 28.9072 215.463 29.2191 215.186 29.6695C214.926 30.1025 214.658 30.4577 214.38 30.7348C213.635 31.497 212.639 31.8781 211.392 31.8781C209.833 31.8781 208.525 31.3151 207.468 30.1891C206.429 29.0631 205.909 27.6686 205.909 26.0056C205.909 24.2733 206.403 22.8268 207.391 21.6662C208.395 20.5055 209.643 19.9252 211.132 19.9252C212.362 19.9252 213.393 20.289 214.224 21.0166C215.056 21.7268 215.498 22.6449 215.55 23.7709C214.995 23.8575 214.259 23.8922 213.341 23.8749L211.522 23.8489C211.401 23.8489 210.361 23.8749 208.404 23.9268C208.317 24.4985 208.274 25.0442 208.274 25.5639C208.274 27.3135 208.603 28.6647 209.261 29.6175C209.937 30.5529 210.881 31.0207 212.094 31.0207C212.787 31.0207 213.341 30.8647 213.757 30.5529C214.173 30.2411 214.623 29.6435 215.108 28.76C215.177 28.6214 215.273 28.5521 215.394 28.5521C215.532 28.5521 215.602 28.6127 215.602 28.734ZM213.341 23.4331C213.272 21.3544 212.527 20.315 211.106 20.315C209.703 20.315 208.828 21.3544 208.482 23.4331H213.341Z" fill="#302828"/>
<path d="M225 28.2663C225 29.271 224.628 30.1285 223.883 30.8388C223.155 31.5317 222.28 31.8781 221.258 31.8781C220.669 31.8781 219.95 31.6703 219.101 31.2545C218.876 31.1333 218.677 31.0726 218.504 31.0726C218.261 31.0726 218.079 31.2372 217.958 31.5663C217.889 31.7742 217.794 31.8781 217.672 31.8781C217.551 31.8781 217.49 31.8089 217.49 31.6703C217.49 31.5837 217.499 31.4797 217.516 31.3585C217.568 31.012 217.594 30.501 217.594 29.8254C217.594 29.7734 217.586 29.5655 217.568 29.2017C217.551 28.8379 217.542 28.5954 217.542 28.4742V28.1883C217.542 27.9978 217.603 27.9025 217.724 27.9025C217.863 27.9025 217.941 27.9978 217.958 28.1883C218.062 28.9852 218.287 29.6088 218.634 30.0592C219.327 30.96 220.253 31.4104 221.414 31.4104C222.038 31.4104 222.54 31.2285 222.921 30.8647C223.302 30.501 223.493 30.0159 223.493 29.4096C223.493 28.734 223.276 28.197 222.843 27.7986C222.601 27.5734 222.376 27.4174 222.168 27.3308C221.977 27.2269 221.397 26.993 220.427 26.6292C218.504 25.9017 217.542 24.8103 217.542 23.3552C217.542 22.3851 217.872 21.5709 218.53 20.9126C219.188 20.2543 220.002 19.9252 220.972 19.9252C221.319 19.9252 221.839 20.0291 222.531 20.237C222.705 20.289 222.861 20.315 222.999 20.315C223.363 20.315 223.588 20.1417 223.675 19.7953C223.727 19.622 223.805 19.5354 223.909 19.5354C224.03 19.5354 224.091 19.6047 224.091 19.7433C224.091 19.7606 224.082 19.8126 224.065 19.8992L224.039 20.9906C224.021 21.4063 224.065 22.0733 224.168 22.9914V23.0434C224.168 23.1819 224.099 23.2512 223.961 23.2512C223.857 23.2512 223.727 22.9914 223.571 22.4717C223.38 21.8481 223.042 21.3457 222.557 20.9646C222.09 20.5835 221.544 20.3929 220.92 20.3929C220.331 20.3929 219.846 20.5748 219.465 20.9386C219.084 21.3024 218.894 21.7615 218.894 22.3158C218.894 23.1819 219.474 23.8402 220.635 24.2906C222.436 25.0009 223.58 25.5899 224.065 26.0576C224.688 26.6639 225 27.4001 225 28.2663Z" fill="#302828"/>
</svg>
