<svg width="50" height="50" viewBox="0 0 50 50" fill="none" xmlns="http://www.w3.org/2000/svg">
<rect width="50" height="50" fill="#C31E39"/>
<path d="M20.6526 26.025L20.6276 26.45C20.6276 26.5333 20.5859 27.0583 20.5026 28.025C20.4359 28.7583 20.4026 29.325 20.4026 29.725C20.4026 30.225 20.4109 30.6416 20.4276 30.975C20.4442 31.0916 20.4526 31.2333 20.4526 31.4C20.4526 31.5833 20.4109 31.675 20.3276 31.675C20.2442 31.675 20.1526 31.5916 20.0526 31.425C19.6859 30.825 19.2942 30.4333 18.8776 30.25C17.6276 31.3166 16.2859 31.85 14.8526 31.85C12.6692 31.85 10.7442 31.0333 9.07755 29.4C7.31089 27.6666 6.42755 25.4833 6.42755 22.85C6.42755 20.3 7.21922 18.175 8.80255 16.475C10.4026 14.7583 12.3942 13.9 14.7776 13.9C15.8776 13.9 16.8609 14.15 17.7276 14.65C18.2276 14.9333 18.5942 15.075 18.8276 15.075C19.1776 15.075 19.5026 14.9166 19.8026 14.6C20.0192 14.3666 20.1526 14.25 20.2026 14.25C20.2692 14.25 20.3026 14.3083 20.3026 14.425C20.3026 14.475 20.2942 14.55 20.2776 14.65C20.1776 15.2166 20.1276 15.9166 20.1276 16.75C20.1276 16.8333 20.1359 17.175 20.1526 17.775C20.1526 18.3583 20.1526 18.75 20.1526 18.95V19.5C20.1526 19.8 20.0692 19.95 19.9026 19.95C19.7692 19.95 19.6359 19.625 19.5026 18.975C18.9026 15.975 17.5276 14.475 15.3776 14.475C13.6776 14.475 12.4442 15.575 11.6776 17.775C11.1442 19.275 10.8776 21.075 10.8776 23.175C10.8776 26.2916 11.5109 28.575 12.7776 30.025C13.4442 30.7916 14.3192 31.175 15.4026 31.175C17.7526 31.175 19.2942 29.6083 20.0276 26.475C20.1442 25.9583 20.2776 25.7 20.4276 25.7C20.5942 25.7 20.6692 25.8083 20.6526 26.025Z" fill="#F3E8E4"/>
<path d="M30.6961 20.825C30.6961 20.925 30.6211 20.9833 30.4711 21C30.4211 21 29.9544 21.0166 29.0711 21.05C28.5211 21.0666 28.1961 21.1666 28.0961 21.35C28.0128 21.5166 27.9711 22.0833 27.9711 23.05L27.9961 30.275C27.9961 30.5083 28.0294 30.675 28.0961 30.775C28.1961 30.9916 28.4794 31.1 28.9461 31.1H29.5461L30.1461 31.15C30.3961 31.1666 30.5211 31.225 30.5211 31.325C30.5211 31.4583 30.3711 31.525 30.0711 31.525H29.9461L24.9461 31.5L22.4461 31.55C22.0461 31.55 21.8461 31.4833 21.8461 31.35C21.8461 31.25 21.9128 31.1916 22.0461 31.175C22.1961 31.1416 22.5961 31.125 23.2461 31.125C23.8128 31.125 24.1628 31.0666 24.2961 30.95C24.4294 30.8166 24.4961 30.4916 24.4961 29.975L24.5211 24.25C24.5211 22.4833 24.4794 21.525 24.3961 21.375C24.2628 21.1583 23.7211 21.0416 22.7711 21.025C22.2711 21.025 22.0211 20.9583 22.0211 20.825C22.0211 20.675 22.2628 20.6083 22.7461 20.625L23.2711 20.65L26.8461 20.675C27.2628 20.675 27.7128 20.6666 28.1961 20.65C28.6794 20.6333 29.3211 20.625 30.1211 20.625C30.5044 20.625 30.6961 20.6916 30.6961 20.825Z" fill="#F3E8E4"/>
<path d="M43.7432 27.425C43.7432 30.2083 42.9599 32.5333 41.3932 34.4C39.8265 36.2666 37.8682 37.2 35.5182 37.2C34.5349 37.2 33.7349 36.9833 33.1182 36.55C32.5182 36.1333 32.2182 35.5916 32.2182 34.925C32.2182 34.4416 32.3682 34.05 32.6682 33.75C32.9682 33.4666 33.3682 33.325 33.8682 33.325C34.8015 33.325 35.2682 33.7333 35.2682 34.55C35.2682 34.9166 35.1599 35.2083 34.9432 35.425C34.8265 35.5583 34.5515 35.75 34.1182 36C34.0182 36.05 33.9682 36.125 33.9682 36.225C33.9682 36.5916 34.4515 36.775 35.4182 36.775C36.7349 36.775 37.7765 36.025 38.5432 34.525C39.3265 33.025 39.7182 31.325 39.7182 29.425C38.8515 30.2416 37.7849 30.65 36.5182 30.65C35.1015 30.65 33.9182 30.1833 32.9682 29.25C32.0349 28.3 31.5682 27.1333 31.5682 25.75C31.5682 24.2 32.1432 22.925 33.2932 21.925C34.4599 20.9083 35.9265 20.4 37.6932 20.4C39.5599 20.4 41.0349 21.025 42.1182 22.275C43.2015 23.525 43.7432 25.2416 43.7432 27.425ZM40.2182 25.725C40.2182 24.0416 39.9599 22.775 39.4432 21.925C38.9932 21.175 38.3849 20.8 37.6182 20.8C37.0849 20.8 36.6099 21.025 36.1932 21.475C35.5599 22.1583 35.2432 23.3333 35.2432 25C35.2432 28.25 36.0599 29.875 37.6932 29.875C38.4432 29.875 39.0515 29.4916 39.5182 28.725C39.9849 27.9583 40.2182 26.9583 40.2182 25.725Z" fill="#F3E8E4"/>
</svg>
