<svg width="538" height="542" viewBox="0 0 538 542" fill="none" xmlns="http://www.w3.org/2000/svg">
<rect x="0.125" y="195.295" width="10" height="400" transform="rotate(-30 0.125 195.295)" fill="#C31E39"/>
<rect x="17.4456" y="185.295" width="10" height="400" transform="rotate(-30 17.4456 185.295)" fill="#C31E39"/>
<rect x="34.7661" y="175.295" width="10" height="400" transform="rotate(-30 34.7661 175.295)" fill="#C31E39"/>
<rect x="52.0864" y="165.295" width="10" height="400" transform="rotate(-30 52.0864 165.295)" fill="#C31E39"/>
<rect x="69.407" y="155.295" width="10" height="400" transform="rotate(-30 69.407 155.295)" fill="#C31E39"/>
<rect x="86.7275" y="145.295" width="10" height="400" transform="rotate(-30 86.7275 145.295)" fill="#C31E39"/>
<rect x="104.048" y="135.295" width="10" height="400" transform="rotate(-30 104.048 135.295)" fill="#C31E39"/>
<rect x="121.369" y="125.295" width="10" height="400" transform="rotate(-30 121.369 125.295)" fill="#C31E39"/>
<rect x="138.689" y="115.295" width="10" height="400" transform="rotate(-30 138.689 115.295)" fill="#C31E39"/>
<rect x="156.01" y="105.295" width="10" height="400" transform="rotate(-30 156.01 105.295)" fill="#C31E39"/>
<rect x="173.33" y="95.2949" width="10" height="400" transform="rotate(-30 173.33 95.2949)" fill="#C31E39"/>
<rect x="190.651" y="85.2949" width="10" height="400" transform="rotate(-30 190.651 85.2949)" fill="#C31E39"/>
<rect x="207.971" y="75.2949" width="10" height="400" transform="rotate(-30 207.971 75.2949)" fill="#C31E39"/>
<rect x="225.292" y="65.2949" width="10" height="400" transform="rotate(-30 225.292 65.2949)" fill="#C31E39"/>
<rect x="242.612" y="55.2949" width="10" height="400" transform="rotate(-30 242.612 55.2949)" fill="#C31E39"/>
<rect x="259.933" y="45.2949" width="10" height="400" transform="rotate(-30 259.933 45.2949)" fill="#C31E39"/>
<rect x="277.253" y="35.2949" width="10" height="400" transform="rotate(-30 277.253 35.2949)" fill="#C31E39"/>
<rect x="294.574" y="25.2949" width="10" height="400" transform="rotate(-30 294.574 25.2949)" fill="#C31E39"/>
<rect x="311.894" y="15.2949" width="10" height="400" transform="rotate(-30 311.894 15.2949)" fill="#C31E39"/>
<rect x="329.215" y="5.29492" width="10" height="400" transform="rotate(-30 329.215 5.29492)" fill="#C31E39"/>
<rect x="259.933" y="45.2949" width="10" height="400" transform="rotate(-30 259.933 45.2949)" fill="#C31E39"/>
<rect x="277.253" y="35.2949" width="10" height="400" transform="rotate(-30 277.253 35.2949)" fill="#C31E39"/>
<rect x="294.574" y="25.2949" width="10" height="400" transform="rotate(-30 294.574 25.2949)" fill="#C31E39"/>
<rect x="311.894" y="15.2949" width="10" height="400" transform="rotate(-30 311.894 15.2949)" fill="#C31E39"/>
<rect x="329.215" y="5.29492" width="10" height="400" transform="rotate(-30 329.215 5.29492)" fill="#C31E39"/>
</svg>
